<?xml version="1.0" standalone="no"?>
<!DOCTYPE svg PUBLIC "-//W3C//DTD SVG 20010904//EN"
 "http://www.w3.org/TR/2001/REC-SVG-20010904/DTD/svg10.dtd">
<svg version="1.0" xmlns="http://www.w3.org/2000/svg"
 width="500.000000pt" height="500.000000pt" viewBox="0 0 500.000000 500.000000"
 preserveAspectRatio="xMidYMid meet">

<g transform="translate(0.000000,500.000000) scale(0.100000,-0.100000)"
fill="#000000" stroke="none">
<path d="M3091 3361 c-14 -4 -27 -13 -29 -20 -4 -11 0 -12 14 -5 27 13 132 10
146 -4 14 -14 28 -16 28 -3 0 5 -15 16 -34 25 -35 16 -82 19 -125 7z"/>
<path d="M3013 3317 c-26 -28 -46 -67 -39 -75 3 -3 7 -3 9 -1 1 2 17 23 35 46
34 44 30 69 -5 30z"/>
<path d="M130 2475 l0 -845 565 0 565 0 0 75 0 75 -475 0 -475 0 0 770 0 770
-90 0 -90 0 0 -845z"/>
<path d="M3267 3314 c-4 -4 2 -19 12 -33 10 -14 22 -36 25 -48 4 -13 12 -23
17 -23 13 0 2 35 -23 78 -21 35 -22 35 -31 26z"/>
<path d="M2960 3165 c0 -30 5 -55 10 -55 6 0 10 25 10 55 0 30 -4 55 -10 55
-5 0 -10 -25 -10 -55z"/>
<path d="M3316 3188 c-3 -7 -7 -35 -10 -63 -5 -46 -4 -48 9 -31 8 11 15 39 15
63 0 42 -7 56 -14 31z"/>
<path d="M2979 3073 c14 -27 70 -77 77 -70 9 8 -57 85 -74 86 -9 1 -10 -4 -3
-16z"/>
<path d="M3260 3045 c-13 -13 -32 -27 -42 -31 -10 -3 -16 -10 -13 -15 10 -16
95 40 95 63 0 15 -16 8 -40 -17z"/>
<path d="M3074 2999 c-6 -11 25 -19 72 -19 24 0 44 4 44 9 0 10 -110 19 -116
10z"/>
<path d="M3093 2914 c-29 -13 -10 -20 40 -16 37 3 63 -1 84 -11 36 -19 52 -10
22 11 -21 14 -124 26 -146 16z"/>
<path d="M1508 2473 c2 -339 6 -440 18 -488 42 -172 151 -287 323 -342 74 -23
254 -29 331 -9 107 27 184 72 256 149 l64 69 0 -111 0 -111 80 0 80 0 0 635 0
635 -85 0 -85 0 0 -378 c0 -303 -3 -389 -15 -435 -39 -149 -126 -245 -265
-293 -82 -27 -235 -25 -315 6 -79 31 -153 105 -186 185 -24 60 -24 63 -27 488
l-3 427 -87 0 -87 0 3 -427z"/>
<path d="M3034 2882 c-31 -26 -57 -69 -45 -76 5 -4 12 3 16 14 3 11 18 28 32
39 13 11 23 25 21 30 -1 5 -12 2 -24 -7z"/>
<path d="M3660 2830 l0 -70 390 -2 391 -3 -401 -507 -400 -506 0 -56 0 -56
520 0 520 0 0 70 0 70 -405 0 c-223 0 -405 3 -405 8 0 4 178 232 395 507 l395
500 0 58 0 57 -500 0 -500 0 0 -70z"/>
<path d="M3270 2863 c0 -15 45 -93 53 -93 12 0 -2 40 -25 73 -20 27 -28 33
-28 20z"/>
<path d="M2965 2739 c-5 -33 -3 -55 4 -62 8 -8 11 0 11 29 0 21 3 49 6 62 4
12 2 22 -4 22 -6 0 -13 -23 -17 -51z"/>
<path d="M3317 2743 c-11 -10 -8 -113 3 -113 6 0 10 27 10 60 0 61 -1 65 -13
53z"/>
<path d="M2964 2596 c1 -30 4 -58 9 -62 4 -4 7 20 7 54 0 34 -4 62 -8 62 -5 0
-8 -24 -8 -54z"/>
<path d="M3317 2603 c-11 -10 -8 -113 3 -113 6 0 10 27 10 60 0 61 -1 65 -13
53z"/>
<path d="M2967 2503 c-7 -13 -3 -101 6 -109 4 -4 7 20 7 54 0 59 -3 72 -13 55z"/>
<path d="M3317 2463 c-11 -10 -8 -113 3 -113 6 0 10 27 10 60 0 61 -1 65 -13
53z"/>
<path d="M2961 2316 c-1 -30 3 -57 9 -61 6 -4 10 16 10 54 0 76 -16 81 -19 7z"/>
<path d="M3317 2323 c-11 -10 -8 -113 3 -113 6 0 10 27 10 60 0 61 -1 65 -13
53z"/>
<path d="M2969 2228 c-6 -14 -4 -110 3 -114 4 -3 8 22 8 55 0 50 -4 73 -11 59z"/>
<path d="M3317 2183 c-11 -10 -8 -113 3 -113 6 0 10 27 10 60 0 61 -1 65 -13
53z"/>
<path d="M2964 2036 c2 -76 16 -83 16 -8 0 34 -4 62 -8 62 -5 0 -8 -24 -8 -54z"/>
<path d="M3317 2043 c-11 -10 -8 -113 3 -113 6 0 10 27 10 60 0 61 -1 65 -13
53z"/>
<path d="M2961 1895 c3 -76 19 -81 19 -6 0 36 -4 61 -11 61 -6 0 -9 -22 -8
-55z"/>
<path d="M3317 1903 c-11 -10 -8 -113 3 -113 6 0 10 27 10 60 0 61 -1 65 -13
53z"/>
<path d="M2962 1788 c0 -44 10 -98 16 -94 10 6 2 116 -8 116 -5 0 -9 -10 -8
-22z"/>
<path d="M3307 1713 c-3 -32 -4 -59 -2 -62 8 -7 25 50 25 85 0 55 -17 39 -23
-23z"/>
<path d="M2980 1665 c0 -20 60 -86 71 -79 5 3 -4 21 -21 40 -16 19 -30 39 -30
44 0 6 -4 10 -10 10 -5 0 -10 -7 -10 -15z"/>
<path d="M3242 1607 c-24 -17 -38 -33 -33 -35 15 -5 78 35 85 53 8 21 -3 18
-52 -18z"/>
<path d="M3072 1578 c5 -14 74 -29 95 -21 22 9 14 18 -14 18 -16 0 -41 4 -56
8 -22 6 -28 5 -25 -5z"/>
</g>
</svg>
